<svg width="1515" height="711" viewBox="0 0 1515 711" fill="none" xmlns="http://www.w3.org/2000/svg">
<g clip-path="url(#clip0_2337_912)">
<mask id="mask0_2337_912" style="mask-type:luminance" maskUnits="userSpaceOnUse" x="0" y="0" width="1515" height="711">
<path d="M1489 0H26C11.6406 0 0 11.6406 0 26V685C0 699.359 11.6406 711 26 711H1489C1503.36 711 1515 699.359 1515 685V26C1515 11.6406 1503.36 0 1489 0Z" fill="white"/>
</mask>
<g mask="url(#mask0_2337_912)">
<path d="M1489 0H26C11.6406 0 0 11.6406 0 26V685C0 699.359 11.6406 711 26 711H1489C1503.36 711 1515 699.359 1515 685V26C1515 11.6406 1503.36 0 1489 0Z" fill="white"/>
<path d="M1515 0H0V711H1515V0Z" fill="#181410"/>
<path d="M0.5 710.5V84.5H1514.5V710.5H0.5Z" fill="#131111" stroke="#424040"/>
<path d="M52 44C52 39.0294 47.9706 35 43 35C38.0294 35 34 39.0294 34 44C34 48.9706 38.0294 53 43 53C47.9706 53 52 48.9706 52 44Z" fill="#F95150"/>
<path d="M82 44C82 39.0294 77.9706 35 73 35C68.0294 35 64 39.0294 64 44C64 48.9706 68.0294 53 73 53C77.9706 53 82 48.9706 82 44Z" fill="#F9E26A"/>
<path d="M112 44C112 39.0294 107.971 35 103 35C98.0294 35 94 39.0294 94 44C94 48.9706 98.0294 53 103 53C107.971 53 112 48.9706 112 44Z" fill="#62D55C"/>
<path d="M177 43.5C177 31.0736 187.074 21 199.5 21H227V66H199.5C187.074 66 177 55.9264 177 43.5Z" fill="#131111"/>
<path d="M205.75 51.5L198.25 44L205.75 36.5" stroke="#DCDCDC" stroke-width="1.5" stroke-linecap="round" stroke-linejoin="round"/>
<path d="M279 43.5C279 55.9264 268.926 66 256.5 66H229V21H256.5C268.926 21 279 31.0736 279 43.5Z" fill="#131111"/>
<path d="M396.5 66L1154.5 66C1166.93 66 1177 55.9264 1177 43.5C1177 31.0736 1166.93 21 1154.5 21L396.5 21C384.074 21 374 31.0736 374 43.5C374 55.9264 384.074 66 396.5 66Z" fill="#131111"/>
<path d="M1145 44L1139 38M1139 38L1145 32M1139 38H1151C1152.59 38 1154.12 38.6321 1155.24 39.7574C1156.37 40.8826 1157 42.4087 1157 44C1157 45.5913 1156.37 47.1174 1155.24 48.2426C1154.12 49.3679 1152.59 50 1151 50H1148" stroke="#DCDCDC" stroke-width="1.5" stroke-linecap="round" stroke-linejoin="round"/>
<path d="M250.25 36.5L257.75 44L250.25 51.5" stroke="#DCDCDC" stroke-width="1.5" stroke-linecap="round" stroke-linejoin="round"/>
<path d="M1422 36.5V51.5M1429.5 44H1414.5" stroke="#DCDCDC" stroke-width="1.5" stroke-linecap="round" stroke-linejoin="round"/>
<path d="M413.095 44.6076V50.9996H410.524V36.4541H413.038V41.9442H413.166C413.422 41.3287 413.817 40.8433 414.352 40.4882C414.892 40.1284 415.579 39.9485 416.412 39.9485C417.17 39.9485 417.83 40.1071 418.393 40.4243C418.957 40.7416 419.393 41.2056 419.7 41.8164C420.013 42.4272 420.169 43.1729 420.169 44.0536V50.9996H417.598V44.4513C417.598 43.7174 417.409 43.1469 417.03 42.7397C416.656 42.3277 416.13 42.1218 415.453 42.1218C414.999 42.1218 414.591 42.2212 414.232 42.4201C413.876 42.6142 413.597 42.8959 413.393 43.2652C413.195 43.6345 413.095 44.082 413.095 44.6076ZM428.237 40.0905V42.0791H421.966V40.0905H428.237ZM423.514 37.4769H426.085V47.7184C426.085 48.064 426.137 48.3291 426.241 48.5138C426.35 48.6937 426.492 48.8168 426.668 48.8831C426.843 48.9494 427.037 48.9826 427.25 48.9826C427.411 48.9826 427.558 48.9707 427.69 48.947C427.828 48.9234 427.932 48.9021 428.003 48.8831L428.436 50.8931C428.299 50.9404 428.102 50.9925 427.847 51.0493C427.596 51.1061 427.288 51.1393 426.923 51.1487C426.279 51.1677 425.699 51.0706 425.183 50.8576C424.667 50.6398 424.258 50.3036 423.955 49.849C423.656 49.3945 423.509 48.8263 423.514 48.1445V37.4769ZM435.835 40.0905V42.0791H429.564V40.0905H435.835ZM431.112 37.4769H433.683V47.7184C433.683 48.064 433.735 48.3291 433.839 48.5138C433.948 48.6937 434.09 48.8168 434.265 48.8831C434.44 48.9494 434.635 48.9826 434.848 48.9826C435.009 48.9826 435.155 48.9707 435.288 48.947C435.425 48.9234 435.529 48.9021 435.6 48.8831L436.034 50.8931C435.896 50.9404 435.7 50.9925 435.444 51.0493C435.193 51.1061 434.886 51.1393 434.521 51.1487C433.877 51.1677 433.297 51.0706 432.781 50.8576C432.265 50.6398 431.855 50.3036 431.552 49.849C431.254 49.3945 431.107 48.8263 431.112 48.1445V37.4769ZM437.985 55.0905V40.0905H440.513V41.8945H440.663C440.795 41.6293 440.982 41.3476 441.224 41.0493C441.465 40.7463 441.792 40.4882 442.204 40.2752C442.616 40.0574 443.141 39.9485 443.781 39.9485C444.623 39.9485 445.383 40.1639 446.06 40.5948C446.742 41.0209 447.282 41.653 447.68 42.4911C448.082 43.3244 448.283 44.3471 448.283 45.5593C448.283 46.7572 448.087 47.7752 447.694 48.6132C447.301 49.4513 446.766 50.0905 446.089 50.5308C445.412 50.9712 444.645 51.1914 443.788 51.1914C443.163 51.1914 442.644 51.0872 442.232 50.8789C441.82 50.6705 441.489 50.4196 441.238 50.126C440.992 49.8277 440.8 49.546 440.663 49.2808H440.556V55.0905H437.985ZM440.506 45.5451C440.506 46.2505 440.606 46.8684 440.805 47.3987C441.008 47.9291 441.299 48.3433 441.678 48.6416C442.062 48.9352 442.526 49.082 443.07 49.082C443.638 49.082 444.114 48.9305 444.498 48.6274C444.881 48.3197 445.17 47.9006 445.364 47.3703C445.563 46.8353 445.663 46.2269 445.663 45.5451C445.663 44.868 445.566 44.2666 445.371 43.7411C445.177 43.2155 444.888 42.8036 444.505 42.5053C444.121 42.207 443.643 42.0578 443.07 42.0578C442.521 42.0578 442.055 42.2023 441.671 42.4911C441.288 42.7799 440.996 43.1847 440.798 43.7056C440.603 44.2264 440.506 44.8396 440.506 45.5451ZM459.107 42.974L456.763 43.2297C456.697 42.993 456.581 42.7704 456.415 42.5621C456.254 42.3538 456.037 42.1857 455.762 42.0578C455.487 41.93 455.151 41.8661 454.754 41.8661C454.219 41.8661 453.769 41.9821 453.404 42.2141C453.044 42.4461 452.867 42.7468 452.871 43.1161C452.867 43.4333 452.983 43.6914 453.219 43.8902C453.461 44.0891 453.859 44.2524 454.413 44.3803L456.273 44.778C457.306 45.0005 458.073 45.3533 458.575 45.8362C459.081 46.3192 459.337 46.9513 459.342 47.7326C459.337 48.4191 459.136 49.0252 458.738 49.5507C458.345 50.0716 457.798 50.4788 457.097 50.7723C456.397 51.0659 455.592 51.2127 454.683 51.2127C453.347 51.2127 452.272 50.9333 451.458 50.3746C450.644 49.8112 450.158 49.0275 450.002 48.0237L452.509 47.7823C452.623 48.2747 452.864 48.6464 453.234 48.8973C453.603 49.1483 454.084 49.2737 454.675 49.2737C455.286 49.2737 455.776 49.1483 456.146 48.8973C456.52 48.6464 456.707 48.3362 456.707 47.9669C456.707 47.6544 456.586 47.3964 456.344 47.1928C456.108 46.9892 455.738 46.8329 455.237 46.724L453.376 46.3334C452.329 46.1156 451.555 45.7487 451.053 45.2326C450.551 44.7117 450.303 44.0536 450.308 43.2581C450.303 42.5858 450.485 42.0034 450.854 41.511C451.228 41.0138 451.747 40.6303 452.41 40.3604C453.077 40.0858 453.847 39.9485 454.718 39.9485C455.996 39.9485 457.003 40.2207 457.737 40.7652C458.475 41.3097 458.932 42.046 459.107 42.974ZM463.045 51.1558C462.615 51.1558 462.245 51.0043 461.938 50.7013C461.63 50.3983 461.478 50.029 461.483 49.5934C461.478 49.1672 461.63 48.8026 461.938 48.4996C462.245 48.1966 462.615 48.0451 463.045 48.0451C463.462 48.0451 463.824 48.1966 464.132 48.4996C464.445 48.8026 464.603 49.1672 464.608 49.5934C464.603 49.8822 464.527 50.145 464.381 50.3817C464.239 50.6184 464.049 50.8078 463.812 50.9499C463.58 51.0872 463.325 51.1558 463.045 51.1558ZM463.045 43.3718C462.615 43.3718 462.245 43.2202 461.938 42.9172C461.63 42.6094 461.478 42.2401 461.483 41.8093C461.478 41.3831 461.63 41.0185 461.938 40.7155C462.245 40.4077 462.615 40.2539 463.045 40.2539C463.462 40.2539 463.824 40.4077 464.132 40.7155C464.445 41.0185 464.603 41.3831 464.608 41.8093C464.603 42.0933 464.527 42.3538 464.381 42.5905C464.239 42.8273 464.049 43.0166 463.812 43.1587C463.58 43.3007 463.325 43.3718 463.045 43.3718ZM473.2 35.7723L468.512 53.1871H466.261L470.949 35.7723H473.2ZM480.778 35.7723L476.091 53.1871H473.839L478.527 35.7723H480.778ZM491.041 42.974L488.697 43.2297C488.631 42.993 488.515 42.7704 488.349 42.5621C488.188 42.3538 487.97 42.1857 487.696 42.0578C487.421 41.93 487.085 41.8661 486.687 41.8661C486.152 41.8661 485.702 41.9821 485.338 42.2141C484.978 42.4461 484.8 42.7468 484.805 43.1161C484.8 43.4333 484.916 43.6914 485.153 43.8902C485.395 44.0891 485.792 44.2524 486.346 44.3803L488.207 44.778C489.239 45.0005 490.006 45.3533 490.508 45.8362C491.015 46.3192 491.27 46.9513 491.275 47.7326C491.27 48.4191 491.069 49.0252 490.672 49.5507C490.279 50.0716 489.732 50.4788 489.031 50.7723C488.33 51.0659 487.525 51.2127 486.616 51.2127C485.281 51.2127 484.206 50.9333 483.392 50.3746C482.577 49.8112 482.092 49.0275 481.936 48.0237L484.443 47.7823C484.556 48.2747 484.798 48.6464 485.167 48.8973C485.537 49.1483 486.017 49.2737 486.609 49.2737C487.22 49.2737 487.71 49.1483 488.079 48.8973C488.453 48.6464 488.64 48.3362 488.64 47.9669C488.64 47.6544 488.52 47.3964 488.278 47.1928C488.041 46.9892 487.672 46.8329 487.17 46.724L485.309 46.3334C484.263 46.1156 483.489 45.7487 482.987 45.2326C482.485 44.7117 482.236 44.0536 482.241 43.2581C482.236 42.5858 482.419 42.0034 482.788 41.511C483.162 41.0138 483.681 40.6303 484.343 40.3604C485.011 40.0858 485.78 39.9485 486.652 39.9485C487.93 39.9485 488.936 40.2207 489.67 40.7652C490.409 41.3097 490.866 42.046 491.041 42.974ZM498.225 51.2127C497.131 51.2127 496.186 50.9854 495.391 50.5308C494.6 50.0716 493.992 49.4229 493.566 48.5848C493.14 47.742 492.926 46.7501 492.926 45.609C492.926 44.4868 493.14 43.502 493.566 42.6544C493.997 41.8022 494.598 41.1393 495.37 40.6658C496.141 40.1876 497.048 39.9485 498.09 39.9485C498.762 39.9485 499.397 40.0574 499.993 40.2752C500.595 40.4882 501.125 40.8197 501.584 41.2695C502.048 41.7193 502.413 42.2922 502.678 42.9882C502.943 43.6795 503.076 44.5034 503.076 45.4598V46.2482H494.134V44.5152H500.611C500.606 44.0228 500.5 43.5848 500.292 43.2013C500.083 42.813 499.792 42.5076 499.418 42.2851C499.049 42.0626 498.618 41.9513 498.125 41.9513C497.6 41.9513 497.138 42.0791 496.74 42.3348C496.343 42.5858 496.033 42.9172 495.81 43.3291C495.592 43.7363 495.481 44.1838 495.476 44.6715V46.1843C495.476 46.8187 495.592 47.3632 495.824 47.8178C496.056 48.2676 496.381 48.6132 496.797 48.8547C497.214 49.0915 497.702 49.2098 498.26 49.2098C498.634 49.2098 498.973 49.1577 499.276 49.0536C499.579 48.9447 499.842 48.7861 500.064 48.5777C500.287 48.3694 500.455 48.1113 500.569 47.8036L502.969 48.0735C502.818 48.7079 502.529 49.2619 502.103 49.7354C501.681 50.2041 501.141 50.5687 500.483 50.8291C499.825 51.0848 499.072 51.2127 498.225 51.2127ZM510.009 51.2127C508.944 51.2127 508.021 50.9783 507.239 50.5095C506.458 50.0408 505.852 49.385 505.421 48.5422C504.995 47.6994 504.782 46.7146 504.782 45.5877C504.782 44.4608 504.995 43.4736 505.421 42.626C505.852 41.7785 506.458 41.1203 507.239 40.6516C508.021 40.1828 508.944 39.9485 510.009 39.9485C511.075 39.9485 511.998 40.1828 512.779 40.6516C513.56 41.1203 514.164 41.7785 514.59 42.626C515.021 43.4736 515.237 44.4608 515.237 45.5877C515.237 46.7146 515.021 47.6994 514.59 48.5422C514.164 49.385 513.56 50.0408 512.779 50.5095C511.998 50.9783 511.075 51.2127 510.009 51.2127ZM510.023 49.153C510.601 49.153 511.084 48.9944 511.472 48.6772C511.861 48.3552 512.149 47.9243 512.339 47.3845C512.533 46.8448 512.63 46.2434 512.63 45.5806C512.63 44.913 512.533 44.3093 512.339 43.7695C512.149 43.225 511.861 42.7917 511.472 42.4698C511.084 42.1478 510.601 41.9868 510.023 41.9868C509.432 41.9868 508.939 42.1478 508.546 42.4698C508.158 42.7917 507.867 43.225 507.673 43.7695C507.483 44.3093 507.388 44.913 507.388 45.5806C507.388 46.2434 507.483 46.8448 507.673 47.3845C507.867 47.9243 508.158 48.3552 508.546 48.6772C508.939 48.9944 509.432 49.153 510.023 49.153ZM526.792 40.0905L522.907 50.9996H520.066L516.181 40.0905H518.923L521.43 48.1942H521.543L524.058 40.0905H526.792ZM528.571 50.9996V40.0905H531.142V50.9996H528.571ZM529.864 38.5422C529.456 38.5422 529.106 38.4073 528.812 38.1374C528.519 37.8628 528.372 37.5337 528.372 37.1502C528.372 36.7619 528.519 36.4328 528.812 36.163C529.106 35.8883 529.456 35.751 529.864 35.751C530.276 35.751 530.626 35.8883 530.915 36.163C531.208 36.4328 531.355 36.7619 531.355 37.1502C531.355 37.5337 531.208 37.8628 530.915 38.1374C530.626 38.4073 530.276 38.5422 529.864 38.5422ZM536.357 36.4541V50.9996H533.786V36.4541H536.357ZM543.83 51.2127C542.737 51.2127 541.792 50.9854 540.996 50.5308C540.206 50.0716 539.597 49.4229 539.171 48.5848C538.745 47.742 538.532 46.7501 538.532 45.609C538.532 44.4868 538.745 43.502 539.171 42.6544C539.602 41.8022 540.203 41.1393 540.975 40.6658C541.747 40.1876 542.654 39.9485 543.695 39.9485C544.368 39.9485 545.002 40.0574 545.599 40.2752C546.2 40.4882 546.73 40.8197 547.19 41.2695C547.654 41.7193 548.018 42.2922 548.283 42.9882C548.549 43.6795 548.681 44.5034 548.681 45.4598V46.2482H539.739V44.5152H546.217C546.212 44.0228 546.105 43.5848 545.897 43.2013C545.689 42.813 545.397 42.5076 545.023 42.2851C544.654 42.0626 544.223 41.9513 543.731 41.9513C543.205 41.9513 542.744 42.0791 542.346 42.3348C541.948 42.5858 541.638 42.9172 541.415 43.3291C541.198 43.7363 541.086 44.1838 541.082 44.6715V46.1843C541.082 46.8187 541.198 47.3632 541.43 47.8178C541.662 48.2676 541.986 48.6132 542.403 48.8547C542.819 49.0915 543.307 49.2098 543.866 49.2098C544.24 49.2098 544.578 49.1577 544.881 49.0536C545.184 48.9447 545.447 48.7861 545.67 48.5777C545.892 48.3694 546.06 48.1113 546.174 47.8036L548.575 48.0735C548.423 48.7079 548.134 49.2619 547.708 49.7354C547.287 50.2041 546.747 50.5687 546.089 50.8291C545.431 51.0848 544.678 51.2127 543.83 51.2127ZM555.615 51.2127C554.549 51.2127 553.626 50.9783 552.845 50.5095C552.064 50.0408 551.458 49.385 551.027 48.5422C550.6 47.6994 550.387 46.7146 550.387 45.5877C550.387 44.4608 550.6 43.4736 551.027 42.626C551.458 41.7785 552.064 41.1203 552.845 40.6516C553.626 40.1828 554.549 39.9485 555.615 39.9485C556.68 39.9485 557.603 40.1828 558.385 40.6516C559.166 41.1203 559.77 41.7785 560.196 42.626C560.627 43.4736 560.842 44.4608 560.842 45.5877C560.842 46.7146 560.627 47.6994 560.196 48.5422C559.77 49.385 559.166 50.0408 558.385 50.5095C557.603 50.9783 556.68 51.2127 555.615 51.2127ZM555.629 49.153C556.207 49.153 556.69 48.9944 557.078 48.6772C557.466 48.3552 557.755 47.9243 557.944 47.3845C558.138 46.8448 558.235 46.2434 558.235 45.5806C558.235 44.913 558.138 44.3093 557.944 43.7695C557.755 43.225 557.466 42.7917 557.078 42.4698C556.69 42.1478 556.207 41.9868 555.629 41.9868C555.037 41.9868 554.545 42.1478 554.152 42.4698C553.763 42.7917 553.472 43.225 553.278 43.7695C553.089 44.3093 552.994 44.913 552.994 45.5806C552.994 46.2434 553.089 46.8448 553.278 47.3845C553.472 47.9243 553.763 48.3552 554.152 48.6772C554.545 48.9944 555.037 49.153 555.629 49.153ZM564.608 51.1558C564.177 51.1558 563.808 51.0043 563.5 50.7013C563.192 50.3983 563.041 50.029 563.045 49.5934C563.041 49.1672 563.192 48.8026 563.5 48.4996C563.808 48.1966 564.177 48.0451 564.608 48.0451C565.025 48.0451 565.387 48.1966 565.695 48.4996C566.007 48.8026 566.166 49.1672 566.17 49.5934C566.166 49.8822 566.09 50.145 565.943 50.3817C565.801 50.6184 565.612 50.8078 565.375 50.9499C565.143 51.0872 564.887 51.1558 564.608 51.1558ZM568.825 55.0905V40.0905H571.353V41.8945H571.502C571.635 41.6293 571.822 41.3476 572.064 41.0493C572.305 40.7463 572.632 40.4882 573.044 40.2752C573.456 40.0574 573.981 39.9485 574.62 39.9485C575.463 39.9485 576.223 40.1639 576.9 40.5948C577.582 41.0209 578.122 41.653 578.52 42.4911C578.922 43.3244 579.123 44.3471 579.123 45.5593C579.123 46.7572 578.927 47.7752 578.534 48.6132C578.141 49.4513 577.606 50.0905 576.929 50.5308C576.252 50.9712 575.484 51.1914 574.627 51.1914C574.002 51.1914 573.484 51.0872 573.072 50.8789C572.66 50.6705 572.329 50.4196 572.078 50.126C571.832 49.8277 571.64 49.546 571.502 49.2808H571.396V55.0905H568.825ZM571.346 45.5451C571.346 46.2505 571.446 46.8684 571.645 47.3987C571.848 47.9291 572.139 48.3433 572.518 48.6416C572.902 48.9352 573.366 49.082 573.91 49.082C574.478 49.082 574.954 48.9305 575.338 48.6274C575.721 48.3197 576.01 47.9006 576.204 47.3703C576.403 46.8353 576.502 46.2269 576.502 45.5451C576.502 44.868 576.405 44.2666 576.211 43.7411C576.017 43.2155 575.728 42.8036 575.345 42.5053C574.961 42.207 574.483 42.0578 573.91 42.0578C573.361 42.0578 572.895 42.2023 572.511 42.4911C572.127 42.7799 571.836 43.1847 571.637 43.7056C571.443 44.2264 571.346 44.8396 571.346 45.5451ZM583.896 36.4541V50.9996H581.325V36.4541H583.896ZM592.477 35.7723L587.79 53.1871H585.538L590.226 35.7723H592.477Z" fill="#DCDCDC"/>
<path d="M1471.75 46.25V49.625C1471.75 50.246 1471.25 50.75 1470.62 50.75H1460.88C1460.58 50.75 1460.29 50.6315 1460.08 50.4205C1459.87 50.2095 1459.75 49.9234 1459.75 49.625V36.875C1459.75 36.254 1460.25 35.75 1460.88 35.75H1462.75C1463.25 35.7497 1463.75 35.7911 1464.25 35.874M1471.75 46.25H1475.12C1475.75 46.25 1476.25 45.746 1476.25 45.125V40.25C1476.25 35.79 1473.01 32.089 1468.75 31.374C1468.25 31.2911 1467.75 31.2497 1467.25 31.25H1465.38C1464.75 31.25 1464.25 31.754 1464.25 32.375V35.874M1471.75 46.25H1465.38C1465.08 46.25 1464.79 46.1315 1464.58 45.9205C1464.37 45.7095 1464.25 45.4234 1464.25 45.125V35.874M1476.25 42.5V40.625C1476.25 39.7299 1475.89 38.8715 1475.26 38.2385C1474.63 37.6056 1473.77 37.25 1472.88 37.25H1471.38C1471.08 37.25 1470.79 37.1315 1470.58 36.9205C1470.37 36.7095 1470.25 36.4234 1470.25 36.125V34.625C1470.25 34.1818 1470.16 33.7429 1469.99 33.3334C1469.82 32.924 1469.57 32.5519 1469.26 32.2385C1468.95 31.9251 1468.58 31.6765 1468.17 31.5069C1467.76 31.3373 1467.32 31.25 1466.88 31.25H1465.75" stroke="#DCDCDC" stroke-width="1.5" stroke-linecap="round" stroke-linejoin="round"/>
</g>
</g>
<rect x="0.5" y="0.5" width="1514" height="710" rx="36.5" stroke="#424040"/>
<defs>
<clipPath id="clip0_2337_912">
<rect width="1515" height="711" rx="37" fill="white"/>
</clipPath>
</defs>
</svg>
